<svg width="69" height="69" viewBox="0 0 69 69" fill="none" xmlns="http://www.w3.org/2000/svg">
<g filter="url(#filter0_d_2456_13675)">
<rect x="10.5693" y="6.56934" width="47.8615" height="47.8615" rx="6" fill="#3C4A51"/>
<rect x="15.2615" y="11.2617" width="38.4769" height="38.4769" rx="5" fill="#939695"/>
<rect x="32.1538" width="3.75385" height="13.1385" rx="1.87692" fill="#76A593"/>
<rect x="41.5386" width="3.75385" height="13.1385" rx="1.87692" fill="#76A593"/>
<rect x="22.7693" width="3.75385" height="13.1385" rx="1.87692" fill="#76A593"/>
<rect x="32.1538" y="47.8613" width="3.75385" height="13.1385" rx="1.87692" fill="#76A593"/>
<rect x="41.5386" y="47.8613" width="3.75385" height="13.1385" rx="1.87692" fill="#76A593"/>
<rect x="22.7693" y="47.8613" width="3.75385" height="13.1385" rx="1.87692" fill="#76A593"/>
<rect x="65" y="28.1538" width="3.75385" height="13.1385" rx="1.87692" transform="rotate(90 65 28.1538)" fill="#76A593"/>
<rect x="65" y="37.5386" width="3.75385" height="13.1385" rx="1.87692" transform="rotate(90 65 37.5386)" fill="#76A593"/>
<rect x="65" y="18.769" width="3.75385" height="13.1385" rx="1.87692" transform="rotate(90 65 18.769)" fill="#76A593"/>
<rect x="17.1384" y="28.1538" width="3.75385" height="13.1385" rx="1.87692" transform="rotate(90 17.1384 28.1538)" fill="#76A593"/>
<rect x="17.1384" y="37.5386" width="3.75385" height="13.1385" rx="1.87692" transform="rotate(90 17.1384 37.5386)" fill="#76A593"/>
<rect x="17.1384" y="18.769" width="3.75385" height="13.1385" rx="1.87692" transform="rotate(90 17.1384 18.769)" fill="#76A593"/>
<rect x="28.3999" y="24.3999" width="11.2615" height="11.2615" fill="#D9D9D9"/>
</g>
<defs>
<filter id="filter0_d_2456_13675" x="0" y="0" width="69" height="69" filterUnits="userSpaceOnUse" color-interpolation-filters="sRGB">
<feFlood flood-opacity="0" result="BackgroundImageFix"/>
<feColorMatrix in="SourceAlpha" type="matrix" values="0 0 0 0 0 0 0 0 0 0 0 0 0 0 0 0 0 0 127 0" result="hardAlpha"/>
<feOffset dy="4"/>
<feGaussianBlur stdDeviation="2"/>
<feComposite in2="hardAlpha" operator="out"/>
<feColorMatrix type="matrix" values="0 0 0 0 0 0 0 0 0 0 0 0 0 0 0 0 0 0 0.25 0"/>
<feBlend mode="normal" in2="BackgroundImageFix" result="effect1_dropShadow_2456_13675"/>
<feBlend mode="normal" in="SourceGraphic" in2="effect1_dropShadow_2456_13675" result="shape"/>
</filter>
</defs>
</svg>
