<svg width="24" height="24" viewBox="0 0 24 24" fill="none" xmlns="http://www.w3.org/2000/svg">
<mask id="path-1-inside-1_2405_8760" fill="white">
<path fill-rule="evenodd" clip-rule="evenodd" d="M5.18198 6.71756C3.42462 8.47491 3.42462 11.3242 5.18198 13.0815L5.53553 13.4351L11.1924 19.0919C11.5829 19.4824 12.2161 19.4824 12.6066 19.0919L18.2635 13.4351L18.617 13.0815C20.3744 11.3242 20.3744 8.47492 18.617 6.71756C16.8597 4.9602 14.0104 4.9602 12.253 6.71756L11.8995 7.07111L11.5459 6.71756C9.78858 4.9602 6.93934 4.9602 5.18198 6.71756Z"/>
</mask>
<path d="M5.18198 13.0815L4.47487 13.7886L5.18198 13.0815ZM5.53553 13.4351L6.24264 12.728L5.53553 13.4351ZM18.2635 13.4351L17.5564 12.728L17.5563 12.728L18.2635 13.4351ZM18.617 13.0815L19.3241 13.7886L19.3241 13.7886L18.617 13.0815ZM18.617 6.71756L17.9099 7.42466L18.617 6.71756ZM12.253 6.71756L12.9602 7.42466L12.253 6.71756ZM11.8995 7.07111L11.1924 7.77822L11.8995 8.48532L12.6066 7.77822L11.8995 7.07111ZM11.5459 6.71756L12.253 6.01045L11.5459 6.71756ZM5.88909 12.3744C4.52225 11.0076 4.52225 8.7915 5.88909 7.42466L4.47487 6.01045C2.32699 8.15833 2.32699 11.6407 4.47487 13.7886L5.88909 12.3744ZM6.24264 12.728L5.88909 12.3744L4.47487 13.7886L4.82843 14.1422L6.24264 12.728ZM11.8995 18.3848L6.24264 12.728L4.82843 14.1422L10.4853 19.799L11.8995 18.3848ZM11.8995 18.3848L11.8995 18.3848L10.4853 19.799C11.2663 20.5801 12.5327 20.5801 13.3137 19.799L11.8995 18.3848ZM17.5563 12.728L11.8995 18.3848L13.3137 19.799L18.9706 14.1422L17.5563 12.728ZM17.9099 12.3744L17.5564 12.728L18.9706 14.1422L19.3241 13.7886L17.9099 12.3744ZM17.9099 7.42466C19.2767 8.7915 19.2767 11.0076 17.9099 12.3744L19.3241 13.7886C21.472 11.6407 21.472 8.15833 19.3241 6.01045L17.9099 7.42466ZM12.9602 7.42466C14.327 6.05783 16.5431 6.05783 17.9099 7.42466L19.3241 6.01045C17.1762 3.86256 13.6938 3.86257 11.5459 6.01045L12.9602 7.42466ZM12.6066 7.77822L12.9602 7.42466L11.5459 6.01045L11.1924 6.364L12.6066 7.77822ZM10.8388 7.42466L11.1924 7.77822L12.6066 6.364L12.253 6.01045L10.8388 7.42466ZM5.88909 7.42466C7.25592 6.05783 9.472 6.05783 10.8388 7.42466L12.253 6.01045C10.1052 3.86257 6.62276 3.86257 4.47487 6.01045L5.88909 7.42466Z" fill="#AAAAAA" mask="url(#path-1-inside-1_2405_8760)"/>
</svg>
