<svg width="236" height="31" viewBox="0 0 236 31" fill="none" xmlns="http://www.w3.org/2000/svg">
<path d="M46.1561 24V7.2H50.0441V24H46.1561ZM61.6151 10.896C62.6391 10.896 63.5511 11.104 64.3511 11.52C65.1671 11.92 65.8071 12.544 66.2711 13.392C66.7351 14.224 66.9671 15.296 66.9671 16.608V24H63.2231V17.184C63.2231 16.144 62.9911 15.376 62.5271 14.88C62.0791 14.384 61.4391 14.136 60.6071 14.136C60.0151 14.136 59.4791 14.264 58.9991 14.52C58.5351 14.76 58.1671 15.136 57.8951 15.648C57.6391 16.16 57.5111 16.816 57.5111 17.616V24H53.7671V11.088H57.3431V14.664L56.6711 13.584C57.1351 12.72 57.7991 12.056 58.6631 11.592C59.5271 11.128 60.5111 10.896 61.6151 10.896ZM75.6408 24.192C74.1208 24.192 72.9368 23.808 72.0888 23.04C71.2408 22.256 70.8168 21.096 70.8168 19.56V8.232H74.5608V19.512C74.5608 20.056 74.7048 20.48 74.9928 20.784C75.2808 21.072 75.6728 21.216 76.1688 21.216C76.7608 21.216 77.2648 21.056 77.6808 20.736L78.6888 23.376C78.3048 23.648 77.8408 23.856 77.2968 24C76.7688 24.128 76.2168 24.192 75.6408 24.192ZM68.8248 14.256V11.376H77.7768V14.256H68.8248ZM86.8001 24.192C85.3281 24.192 84.0321 23.904 82.9121 23.328C81.8081 22.752 80.9521 21.968 80.3441 20.976C79.7361 19.968 79.4321 18.824 79.4321 17.544C79.4321 16.248 79.7281 15.104 80.3201 14.112C80.9281 13.104 81.7521 12.32 82.7921 11.76C83.8321 11.184 85.0081 10.896 86.3201 10.896C87.5841 10.896 88.7201 11.168 89.7281 11.712C90.7521 12.24 91.5601 13.008 92.1521 14.016C92.7441 15.008 93.0401 16.2 93.0401 17.592C93.0401 17.736 93.0321 17.904 93.0161 18.096C93.0001 18.272 92.9841 18.44 92.9681 18.6H82.4801V16.416H91.0001L89.5601 17.064C89.5601 16.392 89.4241 15.808 89.1521 15.312C88.8801 14.816 88.5041 14.432 88.0241 14.16C87.5441 13.872 86.9841 13.728 86.3441 13.728C85.7041 13.728 85.1361 13.872 84.6401 14.16C84.1601 14.432 83.7841 14.824 83.5121 15.336C83.2401 15.832 83.1041 16.424 83.1041 17.112V17.688C83.1041 18.392 83.2561 19.016 83.5601 19.56C83.8801 20.088 84.3201 20.496 84.8801 20.784C85.4561 21.056 86.1281 21.192 86.8961 21.192C87.5841 21.192 88.1841 21.088 88.6961 20.88C89.2241 20.672 89.7041 20.36 90.1361 19.944L92.1281 22.104C91.5361 22.776 90.7921 23.296 89.8961 23.664C89.0001 24.016 87.9681 24.192 86.8001 24.192ZM95.5327 24V11.088H99.1087V14.736L98.6047 13.68C98.9887 12.768 99.6047 12.08 100.453 11.616C101.301 11.136 102.333 10.896 103.549 10.896V14.352C103.389 14.336 103.245 14.328 103.117 14.328C102.989 14.312 102.853 14.304 102.709 14.304C101.685 14.304 100.853 14.6 100.213 15.192C99.5887 15.768 99.2767 16.672 99.2767 17.904V24H95.5327ZM109.724 24L104.3 11.088H108.164L112.676 22.2H110.756L115.436 11.088H119.036L113.588 24H109.724ZM120.564 24V11.088H124.308V24H120.564ZM122.436 9.288C121.748 9.288 121.188 9.088 120.756 8.688C120.324 8.288 120.108 7.792 120.108 7.2C120.108 6.608 120.324 6.112 120.756 5.712C121.188 5.312 121.748 5.112 122.436 5.112C123.124 5.112 123.684 5.304 124.116 5.688C124.548 6.056 124.764 6.536 124.764 7.128C124.764 7.752 124.548 8.272 124.116 8.688C123.7 9.088 123.14 9.288 122.436 9.288ZM134.191 24.192C132.719 24.192 131.423 23.904 130.303 23.328C129.199 22.752 128.343 21.968 127.735 20.976C127.127 19.968 126.823 18.824 126.823 17.544C126.823 16.248 127.119 15.104 127.711 14.112C128.319 13.104 129.143 12.32 130.183 11.76C131.223 11.184 132.399 10.896 133.711 10.896C134.975 10.896 136.111 11.168 137.119 11.712C138.143 12.24 138.951 13.008 139.543 14.016C140.135 15.008 140.431 16.2 140.431 17.592C140.431 17.736 140.423 17.904 140.407 18.096C140.391 18.272 140.375 18.44 140.359 18.6H129.871V16.416H138.391L136.951 17.064C136.951 16.392 136.815 15.808 136.543 15.312C136.271 14.816 135.895 14.432 135.415 14.16C134.935 13.872 134.375 13.728 133.735 13.728C133.095 13.728 132.527 13.872 132.031 14.16C131.551 14.432 131.175 14.824 130.903 15.336C130.631 15.832 130.495 16.424 130.495 17.112V17.688C130.495 18.392 130.647 19.016 130.951 19.56C131.271 20.088 131.711 20.496 132.271 20.784C132.847 21.056 133.519 21.192 134.287 21.192C134.975 21.192 135.575 21.088 136.087 20.88C136.615 20.672 137.095 20.36 137.527 19.944L139.519 22.104C138.927 22.776 138.183 23.296 137.287 23.664C136.391 24.016 135.359 24.192 134.191 24.192ZM145.641 24L140.985 11.088H144.513L148.377 22.2H146.697L150.729 11.088H153.897L157.809 22.2H156.129L160.113 11.088H163.425L158.745 24H155.121L151.689 14.472H152.793L149.241 24H145.641ZM172.226 24V7.2H180.434C182.546 7.2 184.13 7.6 185.186 8.4C186.258 9.2 186.794 10.256 186.794 11.568C186.794 12.448 186.578 13.216 186.146 13.872C185.714 14.512 185.122 15.008 184.37 15.36C183.618 15.712 182.754 15.888 181.778 15.888L182.234 14.904C183.29 14.904 184.226 15.08 185.042 15.432C185.858 15.768 186.49 16.272 186.938 16.944C187.402 17.616 187.634 18.44 187.634 19.416C187.634 20.856 187.066 21.984 185.93 22.8C184.794 23.6 183.122 24 180.914 24H172.226ZM176.09 21.072H180.626C181.634 21.072 182.394 20.912 182.906 20.592C183.434 20.256 183.698 19.728 183.698 19.008C183.698 18.304 183.434 17.784 182.906 17.448C182.394 17.096 181.634 16.92 180.626 16.92H175.802V14.088H179.954C180.898 14.088 181.618 13.928 182.114 13.608C182.626 13.272 182.882 12.768 182.882 12.096C182.882 11.44 182.626 10.952 182.114 10.632C181.618 10.296 180.898 10.128 179.954 10.128H176.09V21.072ZM198.234 24V21.48L197.994 20.928V16.416C197.994 15.616 197.746 14.992 197.25 14.544C196.77 14.096 196.026 13.872 195.018 13.872C194.33 13.872 193.65 13.984 192.978 14.208C192.322 14.416 191.762 14.704 191.298 15.072L189.954 12.456C190.658 11.96 191.506 11.576 192.498 11.304C193.49 11.032 194.498 10.896 195.522 10.896C197.49 10.896 199.018 11.36 200.106 12.288C201.194 13.216 201.738 14.664 201.738 16.632V24H198.234ZM194.298 24.192C193.29 24.192 192.426 24.024 191.706 23.688C190.986 23.336 190.434 22.864 190.05 22.272C189.666 21.68 189.474 21.016 189.474 20.28C189.474 19.512 189.658 18.84 190.026 18.264C190.41 17.688 191.01 17.24 191.826 16.92C192.642 16.584 193.706 16.416 195.018 16.416H198.45V18.6H195.426C194.546 18.6 193.938 18.744 193.602 19.032C193.282 19.32 193.122 19.68 193.122 20.112C193.122 20.592 193.306 20.976 193.674 21.264C194.058 21.536 194.578 21.672 195.234 21.672C195.858 21.672 196.418 21.528 196.914 21.24C197.41 20.936 197.77 20.496 197.994 19.92L198.57 21.648C198.298 22.48 197.802 23.112 197.082 23.544C196.362 23.976 195.434 24.192 194.298 24.192ZM212.974 10.896C213.998 10.896 214.91 11.104 215.71 11.52C216.526 11.92 217.166 12.544 217.63 13.392C218.094 14.224 218.326 15.296 218.326 16.608V24H214.582V17.184C214.582 16.144 214.35 15.376 213.886 14.88C213.438 14.384 212.798 14.136 211.966 14.136C211.374 14.136 210.838 14.264 210.358 14.52C209.894 14.76 209.526 15.136 209.254 15.648C208.998 16.16 208.87 16.816 208.87 17.616V24H205.126V11.088H208.702V14.664L208.03 13.584C208.494 12.72 209.158 12.056 210.022 11.592C210.886 11.128 211.87 10.896 212.974 10.896ZM224.816 21.36L224.912 16.8L230.936 11.088H235.4L229.616 16.968L227.672 18.552L224.816 21.36ZM221.72 24V6.192H225.464V24H221.72ZM231.344 24L226.976 18.576L229.328 15.672L235.88 24H231.344Z" fill="black"/>
<path d="M0.374023 7.78485L5.38664 7.7581L5.48487 26.1672L0.472251 26.1939L0.374023 7.78485Z" fill="#2E55E7"/>
<path d="M10.0449 4.05127L15.0575 4.02452L15.1558 22.4336L10.1431 22.4603L10.0449 4.05127Z" fill="#2E55E7"/>
<path d="M15.5306 30.0585L15.5095 26.1137L0.47168 26.1939V26.1939C0.483305 28.3726 2.25888 30.1293 4.43753 30.1177L15.5306 30.0585Z" fill="#2E55E7"/>
<path d="M11.0935 0.100867C13.2722 0.0892423 15.0477 1.84597 15.0593 4.02462V4.02462L0.0214844 4.10486V4.10486C0.00985968 1.92621 1.76658 0.150634 3.94524 0.139009L11.0935 0.100867Z" fill="#2E55E7"/>
<path fill-rule="evenodd" clip-rule="evenodd" d="M15.1212 30.078C15.2106 30.0787 15.3002 30.0788 15.39 30.0784C23.5468 30.0348 30.1325 24.9955 30.0996 18.8226C30.0667 12.6498 23.4275 7.68096 15.2707 7.72449C15.1809 7.72497 15.0913 7.72605 15.002 7.72773L15.0205 11.2033C20.4314 11.1984 24.8257 14.5019 24.8475 18.6022C24.8694 22.7026 20.5107 26.0527 15.1 26.1056L15.1212 30.078Z" fill="#2E55E7"/>
</svg>
