<svg width="240" height="41" viewBox="0 0 240 41" fill="none" xmlns="http://www.w3.org/2000/svg">
<path fill-rule="evenodd" clip-rule="evenodd" d="M40.7405 28.1118C48.3578 20.4439 49.8317 9.5475 44.0238 3.73954C38.2001 -2.08407 27.2606 -0.586478 19.5896 7.08451C19.5053 7.16887 19.4217 7.25364 19.3388 7.33878L22.6177 10.6177C27.7288 5.55251 34.9826 4.57559 38.8508 8.44377C42.719 12.312 41.7421 19.5658 36.6769 24.6769L36.7049 24.7049L27.5914 33.8183L10.224 16.4509L5.50992 21.165L22.8774 38.5324L22.8771 38.5326L23.0632 38.7187C25.0158 40.6713 28.1816 40.6713 30.1343 38.7187L40.7408 28.1121L40.7405 28.1118ZM8.60681 3.67757C10.5594 1.72495 13.7253 1.72495 15.6779 3.67757L15.864 3.86365L15.8637 3.86388L33.2311 21.2313L28.5171 25.9453L11.1497 8.57792L1.72184 18.0058L1.53575 17.8197C-0.416866 15.8671 -0.416866 12.7012 1.53576 10.7486L8.60681 3.67757Z" fill="#2E55E7"/>
<path d="M70.2504 8.54545V26H66.56V8.54545H70.2504ZM76.8491 18.4318V26H73.2184V12.9091H76.6786V15.2188H76.832C77.1218 14.4574 77.6076 13.8551 78.2894 13.4119C78.9712 12.9631 79.7979 12.7386 80.7695 12.7386C81.6786 12.7386 82.4712 12.9375 83.1474 13.3352C83.8235 13.733 84.3491 14.3011 84.7241 15.0398C85.0991 15.7727 85.2866 16.6477 85.2866 17.6648V26H81.6559V18.3125C81.6616 17.5114 81.457 16.8864 81.0423 16.4375C80.6275 15.983 80.0565 15.7557 79.3292 15.7557C78.8406 15.7557 78.4087 15.8608 78.0337 16.071C77.6644 16.2812 77.3746 16.5881 77.1644 16.9915C76.9599 17.3892 76.8548 17.8693 76.8491 18.4318ZM95.1112 12.9091V15.6364H87.2276V12.9091H95.1112ZM89.0174 9.77273H92.6481V21.9773C92.6481 22.3125 92.6992 22.5739 92.8015 22.7614C92.9038 22.9432 93.0458 23.071 93.2276 23.1449C93.4151 23.2187 93.631 23.2557 93.8754 23.2557C94.0458 23.2557 94.2163 23.2415 94.3867 23.2131C94.5572 23.179 94.6879 23.1534 94.7788 23.1364L95.3498 25.8381C95.168 25.8949 94.9123 25.9602 94.5827 26.0341C94.2532 26.1136 93.8526 26.1619 93.381 26.179C92.506 26.2131 91.739 26.0966 91.0799 25.8295C90.4265 25.5625 89.918 25.1477 89.5543 24.5852C89.1907 24.0227 89.0117 23.3125 89.0174 22.4545V9.77273ZM103.301 26.2557C101.955 26.2557 100.796 25.983 99.8242 25.4375C98.8583 24.8864 98.114 24.108 97.5913 23.1023C97.0685 22.0909 96.8072 20.8949 96.8072 19.5142C96.8072 18.1676 97.0685 16.9858 97.5913 15.9688C98.114 14.9517 98.8498 14.1591 99.7987 13.5909C100.753 13.0227 101.873 12.7386 103.157 12.7386C104.02 12.7386 104.824 12.8778 105.569 13.1562C106.319 13.429 106.972 13.8409 107.529 14.392C108.091 14.9432 108.529 15.6364 108.841 16.4716C109.154 17.3011 109.31 18.2727 109.31 19.3864V20.3835H98.256V18.1335H105.892C105.892 17.6108 105.779 17.1477 105.551 16.7443C105.324 16.3409 105.009 16.0256 104.605 15.7983C104.208 15.5653 103.745 15.4489 103.216 15.4489C102.665 15.4489 102.176 15.5767 101.75 15.8324C101.33 16.0824 101 16.4205 100.762 16.8466C100.523 17.267 100.401 17.7358 100.395 18.2528V20.392C100.395 21.0398 100.515 21.5994 100.753 22.071C100.998 22.5426 101.341 22.9062 101.784 23.1619C102.228 23.4176 102.753 23.5455 103.361 23.5455C103.765 23.5455 104.134 23.4886 104.469 23.375C104.804 23.2614 105.091 23.0909 105.33 22.8636C105.569 22.6364 105.75 22.358 105.875 22.0284L109.233 22.25C109.063 23.0568 108.713 23.7614 108.185 24.3636C107.662 24.9602 106.986 25.4261 106.157 25.7614C105.333 26.0909 104.381 26.2557 103.301 26.2557ZM111.679 26V12.9091H115.199V15.1932H115.336C115.574 14.3807 115.975 13.767 116.537 13.3523C117.1 12.9318 117.748 12.7216 118.48 12.7216C118.662 12.7216 118.858 12.733 119.069 12.7557C119.279 12.7784 119.463 12.8097 119.623 12.8494V16.071C119.452 16.0199 119.216 15.9744 118.915 15.9347C118.614 15.8949 118.338 15.875 118.088 15.875C117.554 15.875 117.077 15.9915 116.657 16.2244C116.242 16.4517 115.912 16.7699 115.668 17.179C115.429 17.5881 115.31 18.0597 115.31 18.5938V26H111.679ZM134.103 12.9091L129.526 26H125.435L120.858 12.9091H124.694L127.412 22.2756H127.549L130.259 12.9091H134.103ZM135.961 26V12.9091H139.591V26H135.961ZM137.784 11.2216C137.245 11.2216 136.782 11.0426 136.395 10.6847C136.015 10.321 135.824 9.88636 135.824 9.38068C135.824 8.88068 136.015 8.4517 136.395 8.09375C136.782 7.73011 137.245 7.54829 137.784 7.54829C138.324 7.54829 138.784 7.73011 139.165 8.09375C139.551 8.4517 139.745 8.88068 139.745 9.38068C139.745 9.88636 139.551 10.321 139.165 10.6847C138.784 11.0426 138.324 11.2216 137.784 11.2216ZM148.466 26.2557C147.119 26.2557 145.96 25.983 144.988 25.4375C144.022 24.8864 143.278 24.108 142.755 23.1023C142.233 22.0909 141.971 20.8949 141.971 19.5142C141.971 18.1676 142.233 16.9858 142.755 15.9688C143.278 14.9517 144.014 14.1591 144.963 13.5909C145.917 13.0227 147.037 12.7386 148.321 12.7386C149.184 12.7386 149.988 12.8778 150.733 13.1562C151.483 13.429 152.136 13.8409 152.693 14.392C153.255 14.9432 153.693 15.6364 154.005 16.4716C154.318 17.3011 154.474 18.2727 154.474 19.3864V20.3835H143.42V18.1335H151.056C151.056 17.6108 150.943 17.1477 150.716 16.7443C150.488 16.3409 150.173 16.0256 149.77 15.7983C149.372 15.5653 148.909 15.4489 148.38 15.4489C147.829 15.4489 147.341 15.5767 146.914 15.8324C146.494 16.0824 146.164 16.4205 145.926 16.8466C145.687 17.267 145.565 17.7358 145.559 18.2528V20.392C145.559 21.0398 145.679 21.5994 145.917 22.071C146.162 22.5426 146.505 22.9062 146.949 23.1619C147.392 23.4176 147.917 23.5455 148.525 23.5455C148.929 23.5455 149.298 23.4886 149.633 23.375C149.968 23.2614 150.255 23.0909 150.494 22.8636C150.733 22.6364 150.914 22.358 151.039 22.0284L154.397 22.25C154.227 23.0568 153.877 23.7614 153.349 24.3636C152.826 24.9602 152.15 25.4261 151.321 25.7614C150.497 26.0909 149.545 26.2557 148.466 26.2557ZM159.332 26L155.77 12.9091H159.443L161.471 21.7045H161.591L163.704 12.9091H167.309L169.457 21.6534H169.568L171.562 12.9091H175.227L171.673 26H167.829L165.579 17.767H165.417L163.167 26H159.332ZM182.787 26V8.54545H189.775C191.059 8.54545 192.13 8.7358 192.988 9.11648C193.846 9.49716 194.491 10.0256 194.923 10.7017C195.355 11.3722 195.571 12.1449 195.571 13.0199C195.571 13.7017 195.434 14.3011 195.162 14.8182C194.889 15.3295 194.514 15.75 194.037 16.0795C193.565 16.4034 193.025 16.6335 192.417 16.7699V16.9403C193.082 16.9687 193.704 17.1562 194.284 17.5028C194.869 17.8494 195.343 18.3352 195.707 18.9602C196.071 19.5795 196.252 20.3182 196.252 21.1761C196.252 22.1023 196.022 22.929 195.562 23.6562C195.108 24.3778 194.434 24.9489 193.542 25.3693C192.65 25.7898 191.551 26 190.244 26H182.787ZM186.477 22.983H189.485C190.514 22.983 191.264 22.7869 191.735 22.3949C192.207 21.9972 192.443 21.4687 192.443 20.8097C192.443 20.3267 192.326 19.9006 192.093 19.5312C191.86 19.1619 191.528 18.8722 191.096 18.6619C190.67 18.4517 190.162 18.3466 189.571 18.3466H186.477V22.983ZM186.477 15.8494H189.213C189.718 15.8494 190.167 15.7614 190.559 15.5852C190.957 15.4034 191.27 15.1477 191.497 14.8182C191.73 14.4886 191.846 14.0938 191.846 13.6335C191.846 13.0028 191.622 12.4943 191.173 12.108C190.73 11.7216 190.099 11.5284 189.281 11.5284H186.477V15.8494ZM202.319 26.2472C201.483 26.2472 200.739 26.1023 200.086 25.8125C199.432 25.517 198.915 25.0824 198.534 24.5085C198.159 23.929 197.972 23.2074 197.972 22.3438C197.972 21.6165 198.105 21.0057 198.373 20.5114C198.64 20.017 199.003 19.6193 199.463 19.3182C199.924 19.017 200.446 18.7898 201.032 18.6364C201.623 18.483 202.242 18.375 202.89 18.3125C203.651 18.233 204.265 18.1591 204.73 18.0909C205.196 18.017 205.534 17.9091 205.745 17.767C205.955 17.625 206.06 17.4148 206.06 17.1364V17.0852C206.06 16.5455 205.89 16.1278 205.549 15.8324C205.213 15.5369 204.736 15.3892 204.117 15.3892C203.463 15.3892 202.944 15.5341 202.557 15.8239C202.171 16.108 201.915 16.4659 201.79 16.8977L198.432 16.625C198.603 15.8295 198.938 15.142 199.438 14.5625C199.938 13.9773 200.583 13.5284 201.373 13.2159C202.168 12.8977 203.088 12.7386 204.134 12.7386C204.861 12.7386 205.557 12.8239 206.222 12.9943C206.892 13.1648 207.486 13.429 208.003 13.7869C208.526 14.1449 208.938 14.6051 209.239 15.1676C209.54 15.7244 209.691 16.392 209.691 17.1705V26H206.248V24.1847H206.145C205.935 24.5938 205.654 24.9545 205.301 25.267C204.949 25.5739 204.526 25.8153 204.032 25.9915C203.537 26.1619 202.966 26.2472 202.319 26.2472ZM203.358 23.7415C203.892 23.7415 204.364 23.6364 204.773 23.4261C205.182 23.2102 205.503 22.9205 205.736 22.5568C205.969 22.1932 206.086 21.7812 206.086 21.321V19.9318C205.972 20.0057 205.816 20.0739 205.617 20.1364C205.424 20.1932 205.205 20.2472 204.961 20.2983C204.716 20.3437 204.472 20.3864 204.228 20.4261C203.983 20.4602 203.762 20.4915 203.563 20.5199C203.137 20.5824 202.765 20.6818 202.446 20.8182C202.128 20.9545 201.881 21.1392 201.705 21.3722C201.529 21.5994 201.441 21.8835 201.441 22.2244C201.441 22.7188 201.62 23.0966 201.978 23.358C202.341 23.6136 202.801 23.7415 203.358 23.7415ZM216.138 18.4318V26H212.507V12.9091H215.968V15.2188H216.121C216.411 14.4574 216.897 13.8551 217.578 13.4119C218.26 12.9631 219.087 12.7386 220.059 12.7386C220.968 12.7386 221.76 12.9375 222.436 13.3352C223.113 13.733 223.638 14.3011 224.013 15.0398C224.388 15.7727 224.576 16.6477 224.576 17.6648V26H220.945V18.3125C220.951 17.5114 220.746 16.8864 220.331 16.4375C219.917 15.983 219.346 15.7557 218.618 15.7557C218.13 15.7557 217.698 15.8608 217.323 16.071C216.953 16.2812 216.664 16.5881 216.453 16.9915C216.249 17.3892 216.144 17.8693 216.138 18.4318ZM230.727 22.233L230.735 17.8778H231.264L235.457 12.9091H239.625L233.991 19.4886H233.13L230.727 22.233ZM227.437 26V8.54545H231.068V26H227.437ZM235.619 26L231.767 20.2983L234.187 17.733L239.872 26H235.619Z" fill="black"/>
</svg>
