<svg width="243" height="41" viewBox="0 0 243 41" fill="none" xmlns="http://www.w3.org/2000/svg">
<path fill-rule="evenodd" clip-rule="evenodd" d="M40.6259 28.1918C40.5415 28.2762 40.4567 28.3598 40.3716 28.4426L40.3553 28.4263L30.1339 38.6477C28.1813 40.6003 25.0155 40.6003 23.0629 38.6477L22.8768 38.4615L5.50932 21.094L10.2234 16.3799L27.5909 33.7474L36.6337 24.7047L36.624 24.695C41.6892 19.5839 42.6661 12.3301 38.7979 8.4619C34.9477 4.61174 27.7434 5.56165 22.6364 10.5653L33.2311 21.1602L28.5171 25.8742L11.1495 8.50668L1.7216 17.9348L1.5355 17.7487C-0.417107 15.7961 -0.417107 12.6302 1.5355 10.6776L8.60658 3.60656C10.5592 1.65394 13.725 1.65394 15.6776 3.60656L15.8637 3.79264L19.3561 7.28504C19.4159 7.22404 19.4761 7.16323 19.5367 7.10263C27.2077 -0.568351 38.1473 -2.06594 43.9709 3.75766C49.7945 9.58127 48.2969 20.5208 40.6259 28.1918ZM73.2503 25V7.54547H69.56V25H73.2503ZM79.849 25V17.4318C79.8547 16.8693 79.9598 16.3892 80.1644 15.9915C80.3746 15.5881 80.6644 15.2813 81.0337 15.071C81.4087 14.8608 81.8405 14.7557 82.3291 14.7557C83.0564 14.7557 83.6274 14.983 84.0422 15.4375C84.457 15.8864 84.6615 16.5114 84.6558 17.3125V25H88.2865V16.6648C88.2865 15.6477 88.099 14.7727 87.724 14.0398C87.349 13.3011 86.8235 12.733 86.1473 12.3352C85.4712 11.9375 84.6786 11.7386 83.7695 11.7386C82.7979 11.7386 81.9712 11.9631 81.2894 12.4119C80.6076 12.8551 80.1217 13.4574 79.832 14.2188H79.6786V11.9091H76.2183V25H79.849ZM98.1111 14.6364V11.9091H95.648V8.77274H92.0173V11.9091H90.2276V14.6364H92.0173V21.4546C92.0117 22.3125 92.1907 23.0227 92.5543 23.5852C92.9179 24.1477 93.4264 24.5625 94.0798 24.8296C94.7389 25.0966 95.506 25.2131 96.381 25.179C96.8526 25.1619 97.2532 25.1136 97.5827 25.0341C97.9122 24.9602 98.1679 24.8949 98.3497 24.8381L97.7787 22.1364C97.6878 22.1534 97.5571 22.179 97.3867 22.2131C97.2162 22.2415 97.0458 22.2557 96.8753 22.2557C96.631 22.2557 96.4151 22.2188 96.2276 22.1449C96.0458 22.071 95.9037 21.9432 95.8014 21.7614C95.6992 21.5739 95.648 21.3125 95.648 20.9773V14.6364H98.1111ZM102.824 24.4375C103.796 24.983 104.955 25.2557 106.301 25.2557C107.381 25.2557 108.333 25.0909 109.157 24.7614C109.986 24.4261 110.662 23.9602 111.185 23.3636C111.713 22.7614 112.063 22.0568 112.233 21.25L108.875 21.0284C108.75 21.358 108.568 21.6364 108.33 21.8636C108.091 22.0909 107.804 22.2614 107.469 22.375C107.134 22.4886 106.765 22.5455 106.361 22.5455C105.753 22.5455 105.228 22.4176 104.784 22.1619C104.341 21.9063 103.997 21.5426 103.753 21.071C103.515 20.5994 103.395 20.0398 103.395 19.3921V19.3835H112.31V18.3864C112.31 17.2727 112.154 16.3011 111.841 15.4716C111.529 14.6364 111.091 13.9432 110.529 13.3921C109.972 12.8409 109.318 12.429 108.568 12.1563C107.824 11.8779 107.02 11.7386 106.157 11.7386C104.872 11.7386 103.753 12.0227 102.799 12.5909C101.85 13.1591 101.114 13.9517 100.591 14.9688C100.068 15.9858 99.8071 17.1676 99.8071 18.5142C99.8071 19.8949 100.068 21.0909 100.591 22.1023C101.114 23.108 101.858 23.8864 102.824 24.4375ZM103.399 17.1335C103.42 16.6635 103.542 16.2345 103.762 15.8466C104 15.4205 104.33 15.0824 104.75 14.8324C105.176 14.5767 105.665 14.4489 106.216 14.4489C106.745 14.4489 107.208 14.5654 107.605 14.7983C108.009 15.0256 108.324 15.3409 108.551 15.7443C108.779 16.1477 108.892 16.6108 108.892 17.1335H103.399ZM114.679 11.9091V25H118.31V17.5938C118.31 17.0597 118.429 16.5881 118.668 16.179C118.912 15.7699 119.242 15.4517 119.657 15.2244C120.077 14.9915 120.554 14.875 121.088 14.875C121.338 14.875 121.614 14.8949 121.915 14.9347C122.216 14.9744 122.452 15.0199 122.622 15.071V11.8494C122.463 11.8097 122.279 11.7784 122.068 11.7557C121.858 11.733 121.662 11.7216 121.48 11.7216C120.747 11.7216 120.1 11.9318 119.537 12.3523C118.975 12.7671 118.574 13.3807 118.336 14.1932H118.199V11.9091H114.679ZM132.526 25L137.103 11.9091H133.259L130.549 21.2756H130.412L127.693 11.9091H123.858L128.435 25H132.526ZM138.961 11.9091V25H142.591V11.9091H138.961ZM139.395 9.68467C139.782 10.0426 140.245 10.2216 140.784 10.2216C141.324 10.2216 141.784 10.0426 142.165 9.68467C142.551 9.32103 142.745 8.88638 142.745 8.38069C142.745 7.88069 142.551 7.45172 142.165 7.09376C141.784 6.73013 141.324 6.54831 140.784 6.54831C140.245 6.54831 139.782 6.73013 139.395 7.09376C139.015 7.45172 138.824 7.88069 138.824 8.38069C138.824 8.88638 139.015 9.32103 139.395 9.68467ZM147.988 24.4375C148.96 24.983 150.119 25.2557 151.465 25.2557C152.545 25.2557 153.497 25.0909 154.321 24.7614C155.15 24.4261 155.826 23.9602 156.349 23.3636C156.877 22.7614 157.227 22.0568 157.397 21.25L154.039 21.0284C153.914 21.358 153.733 21.6364 153.494 21.8636C153.255 22.0909 152.968 22.2614 152.633 22.375C152.298 22.4886 151.929 22.5455 151.525 22.5455C150.917 22.5455 150.392 22.4176 149.948 22.1619C149.505 21.9063 149.162 21.5426 148.917 21.071C148.679 20.5994 148.559 20.0398 148.559 19.3921V19.3835H157.474V18.3864C157.474 17.2727 157.318 16.3011 157.005 15.4716C156.693 14.6364 156.255 13.9432 155.693 13.3921C155.136 12.8409 154.483 12.429 153.733 12.1563C152.988 11.8779 152.184 11.7386 151.321 11.7386C150.037 11.7386 148.917 12.0227 147.963 12.5909C147.014 13.1591 146.278 13.9517 145.755 14.9688C145.233 15.9858 144.971 17.1676 144.971 18.5142C144.971 19.8949 145.233 21.0909 145.755 22.1023C146.278 23.108 147.022 23.8864 147.988 24.4375ZM148.563 17.1335C148.585 16.6635 148.706 16.2345 148.926 15.8466C149.164 15.4205 149.494 15.0824 149.914 14.8324C150.34 14.5767 150.829 14.4489 151.38 14.4489C151.909 14.4489 152.372 14.5654 152.769 14.7983C153.173 15.0256 153.488 15.3409 153.715 15.7443C153.943 16.1477 154.056 16.6108 154.056 17.1335H148.563ZM158.769 11.9091L162.332 25H166.167L168.417 16.7671H168.579L170.829 25H174.673L178.227 11.9091H174.562L172.568 20.6534H172.457L170.309 11.9091H166.704L164.59 20.7046H164.471L162.443 11.9091H158.769ZM185.787 7.54547V25H193.244C194.551 25 195.65 24.7898 196.542 24.3693C197.434 23.9489 198.108 23.3779 198.562 22.6563C199.022 21.929 199.252 21.1023 199.252 20.1761C199.252 19.3182 199.071 18.5796 198.707 17.9602C198.343 17.3352 197.869 16.8494 197.284 16.5029C196.704 16.1563 196.082 15.9688 195.417 15.9404V15.7699C196.025 15.6335 196.565 15.4034 197.037 15.0796C197.514 14.75 197.889 14.3296 198.162 13.8182C198.434 13.3011 198.571 12.7017 198.571 12.0199C198.571 11.1449 198.355 10.3722 197.923 9.70172C197.491 9.02558 196.846 8.49717 195.988 8.11649C195.13 7.73581 194.059 7.54547 192.775 7.54547H185.787ZM192.485 21.983H189.477V17.3466H192.571C193.162 17.3466 193.67 17.4517 194.096 17.6619C194.528 17.8722 194.86 18.1619 195.093 18.5313C195.326 18.9006 195.443 19.3267 195.443 19.8097C195.443 20.4688 195.207 20.9972 194.735 21.3949C194.264 21.7869 193.514 21.983 192.485 21.983ZM192.213 14.8494H189.477V10.5284H192.281C193.099 10.5284 193.73 10.7216 194.173 11.108C194.622 11.4943 194.846 12.0029 194.846 12.6335C194.846 13.0938 194.73 13.4886 194.497 13.8182C194.269 14.1477 193.957 14.4034 193.559 14.5852C193.167 14.7614 192.718 14.8494 192.213 14.8494ZM203.086 24.8125C203.739 25.1023 204.483 25.2472 205.318 25.2472C205.966 25.2472 206.537 25.1619 207.032 24.9915C207.526 24.8154 207.949 24.5739 208.301 24.2671C208.654 23.9546 208.935 23.5938 209.145 23.1847H209.247V25H212.691V16.1705C212.691 15.3921 212.54 14.7244 212.239 14.1676C211.938 13.6051 211.526 13.1449 211.003 12.7869C210.486 12.429 209.892 12.1648 209.222 11.9943C208.557 11.8239 207.861 11.7386 207.134 11.7386C206.088 11.7386 205.168 11.8977 204.372 12.2159C203.583 12.5284 202.938 12.9773 202.438 13.5625C201.938 14.1421 201.603 14.8296 201.432 15.625L204.79 15.8977C204.915 15.4659 205.171 15.108 205.557 14.8239C205.943 14.5341 206.463 14.3892 207.117 14.3892C207.736 14.3892 208.213 14.5369 208.549 14.8324C208.89 15.1279 209.06 15.5455 209.06 16.0852V16.1364C209.06 16.4148 208.955 16.625 208.745 16.7671C208.534 16.9091 208.196 17.0171 207.73 17.0909C207.265 17.1591 206.651 17.233 205.89 17.3125C205.242 17.375 204.622 17.483 204.032 17.6364C203.446 17.7898 202.924 18.0171 202.463 18.3182C202.003 18.6193 201.64 19.0171 201.372 19.5114C201.105 20.0057 200.972 20.6165 200.972 21.3438C200.972 22.2074 201.159 22.929 201.534 23.5085C201.915 24.0824 202.432 24.5171 203.086 24.8125ZM207.773 22.4261C207.364 22.6364 206.892 22.7415 206.358 22.7415C205.801 22.7415 205.341 22.6136 204.978 22.358C204.62 22.0966 204.441 21.7188 204.441 21.2244C204.441 20.8835 204.529 20.5994 204.705 20.3722C204.881 20.1392 205.128 19.9546 205.446 19.8182C205.765 19.6818 206.137 19.5824 206.563 19.5199L206.884 19.4743L207.228 19.4261C207.472 19.3864 207.716 19.3438 207.961 19.2983C208.205 19.2472 208.424 19.1932 208.617 19.1364C208.816 19.0739 208.972 19.0057 209.086 18.9318V20.321C209.086 20.7813 208.969 21.1932 208.736 21.5568C208.503 21.9205 208.182 22.2102 207.773 22.4261ZM219.138 25V17.4318C219.144 16.8693 219.249 16.3892 219.453 15.9915C219.664 15.5881 219.953 15.2813 220.323 15.071C220.698 14.8608 221.13 14.7557 221.618 14.7557C222.345 14.7557 222.917 14.983 223.331 15.4375C223.746 15.8864 223.951 16.5114 223.945 17.3125V25H227.576V16.6648C227.576 15.6477 227.388 14.7727 227.013 14.0398C226.638 13.3011 226.112 12.733 225.436 12.3352C224.76 11.9375 223.968 11.7386 223.059 11.7386C222.087 11.7386 221.26 11.9631 220.578 12.4119C219.897 12.8551 219.411 13.4574 219.121 14.2188H218.968V11.9091H215.507V25H219.138ZM234.068 20.8437V25H230.437V7.54547H234.068V16.8779H234.264L238.457 11.9091H242.625L237.769 17.5797L242.872 25H238.619L235.052 19.7202L234.068 20.8437Z" fill="#2E55E7"/>
</svg>
